<svg id="Capa_1" enable-background="new 0 0 512.003 512.003" height="512" viewBox="0 0 512.003 512.003" width="512" xmlns="http://www.w3.org/2000/svg"><g><g id="XMLID_414_"><path d="m49.306 341.678c-3.743 1.992-8.01 3.129-12.546 3.129-14.778 0-26.758-11.98-26.758-26.758 0-14.779 11.98-26.759 26.758-26.758 0-14.778 11.98-26.759 26.758-26.758 14.778 0 26.758 11.98 26.758 26.758 0 4.536-1.137 8.803-3.129 12.546l121.021 121.021c3.743-1.992 8.01-3.129 12.546-3.129 14.778 0 26.758 11.98 26.758 26.758s-11.98 26.759-26.758 26.758c0 14.778-11.98 26.758-26.758 26.758s-26.758-11.98-26.758-26.758c0-4.536 1.137-8.803 3.129-12.546z" fill="#c9d3dd"/></g><g id="XMLID_413_"><path d="m424.856 225.75c-1.992-3.743-3.129-8.01-3.129-12.546 0-14.778 11.98-26.758 26.758-26.758 14.779 0 26.759 11.98 26.758 26.758 14.778 0 26.759 11.98 26.758 26.758 0 14.778-11.98 26.758-26.758 26.758-4.536 0-8.803-1.137-12.546-3.129l-121.02 121.023c1.992 3.743 3.129 8.01 3.129 12.546 0 14.778-11.98 26.758-26.758 26.758s-26.759-11.98-26.758-26.758c-14.778 0-26.758-11.98-26.758-26.758s11.98-26.758 26.758-26.758c4.536 0 8.803 1.137 12.546 3.129z" fill="#c9d3dd"/></g><g id="XMLID_43_"><g id="XMLID_323_"><g id="XMLID_409_"><g id="XMLID_410_"><path d="m208.484 262.681c-14.051 1.324-26.515-8.992-27.839-23.043l-1.482-15.726c-22.884 2.091-45.713-14.486-47.871-37.379l-4.715-50.021-.546-5.795c-5.72-60.676 38.831-114.5 99.507-120.219 60.676-5.72 114.5 38.831 120.219 99.507l.546 5.795 4.715 50.021c2.158 22.893-17.148 43.441-40.02 45.663l1.482 15.726c1.324 14.051-8.992 26.515-23.043 27.839z" fill="#c9d3dd"/></g></g><g id="XMLID_326_"><g id="XMLID_405_"><ellipse cx="280.385" cy="120.8" fill="#93a7bb" rx="22.055" ry="22.055" transform="matrix(.996 -.094 .094 .996 -10.099 26.847)"/></g><g id="XMLID_404_"><circle cx="192.267" cy="129.106" fill="#93a7bb" r="22.055"/></g></g></g></g><g><path d="m220.716 411.729c-3.42 0-6.829.484-10.109 1.423l-24.06-24.059c-3.906-3.905-10.236-3.905-14.143 0-3.905 3.905-3.905 10.237 0 14.142l28.694 28.693c3.111 3.11 7.889 3.822 11.769 1.757 2.44-1.298 5.08-1.957 7.849-1.957 9.24 0 16.758 7.518 16.758 16.758 0 9.241-7.518 16.759-16.759 16.759-2.652 0-5.196 1.054-7.071 2.929s-2.929 4.419-2.929 7.071c0 4.476-1.742 8.685-4.908 11.85-3.165 3.165-7.373 4.908-11.85 4.908s-8.685-1.743-11.851-4.908c-3.165-3.166-4.908-7.374-4.908-11.85 0-2.767.658-5.408 1.957-7.85 2.065-3.882 1.353-8.658-1.757-11.767l-121.02-121.021c-3.109-3.109-7.888-3.823-11.769-1.757-2.44 1.298-5.081 1.957-7.849 1.957-9.241 0-16.759-7.518-16.759-16.758 0-4.477 1.743-8.685 4.908-11.85 3.166-3.165 7.374-4.908 11.851-4.908 2.652 0 5.195-1.054 7.071-2.929 1.875-1.875 2.929-4.419 2.929-7.071 0-4.477 1.743-8.685 4.908-11.85 3.165-3.166 7.374-4.908 11.851-4.908s8.685 1.743 11.85 4.908 4.908 7.374 4.908 11.85c0 2.767-.658 5.408-1.957 7.849-2.065 3.882-1.353 8.658 1.757 11.768l28.688 28.689c3.905 3.906 10.235 3.906 14.143 0 3.905-3.905 3.905-10.237 0-14.142l-24.054-24.055c.938-3.281 1.423-6.69 1.423-10.11 0-9.818-3.823-19.049-10.767-25.992-6.942-6.943-16.173-10.767-25.991-10.766 0 0 0 0-.001 0-9.818 0-19.05 3.824-25.992 10.766-4.788 4.789-8.093 10.667-9.683 17.075-6.408 1.59-12.286 4.895-17.075 9.684-6.943 6.943-10.766 16.173-10.766 25.992 0 20.269 16.49 36.758 36.759 36.758 3.42 0 6.829-.484 10.109-1.423l111.751 111.751c-.938 3.28-1.423 6.69-1.423 10.109 0 9.819 3.823 19.049 10.767 25.992 6.942 6.943 16.174 10.767 25.992 10.766 9.818 0 19.05-3.824 25.992-10.766 4.792-4.792 8.098-10.674 9.686-17.086 15.973-3.997 27.839-18.471 27.839-35.665-.001-20.267-16.49-36.756-36.758-36.756z"/><path d="m501.236 213.971c-4.792-4.792-10.674-8.098-17.087-9.686-3.996-15.972-18.471-27.838-35.664-27.838-20.269 0-36.758 16.49-36.758 36.758 0 3.419.484 6.829 1.423 10.109l-111.752 111.751c-3.28-.938-6.689-1.423-10.109-1.423-9.818 0-19.05 3.824-25.992 10.767-6.943 6.943-10.767 16.174-10.766 25.992 0 9.818 3.823 19.049 10.766 25.992 4.792 4.792 10.674 8.098 17.087 9.687 3.996 15.972 18.471 27.838 35.664 27.838 20.269 0 36.758-16.49 36.758-36.758 0-3.42-.484-6.83-1.423-10.11l111.752-111.751c3.28.938 6.69 1.423 10.109 1.423 9.818 0 19.05-3.824 25.992-10.767 6.943-6.943 10.767-16.174 10.766-25.991.001-9.819-3.823-19.05-10.766-25.993zm-14.142 37.842c-3.165 3.166-7.373 4.909-11.85 4.909-2.767 0-5.408-.659-7.85-1.958-3.88-2.064-8.656-1.353-11.768 1.757l-121.021 121.022c-3.11 3.11-3.822 7.887-1.756 11.77 1.298 2.438 1.956 5.079 1.956 7.847 0 9.241-7.518 16.758-16.758 16.758-9.241 0-16.759-7.518-16.759-16.759 0-2.652-1.054-5.196-2.929-7.071-1.876-1.875-4.419-2.929-7.071-2.929-4.477 0-8.685-1.743-11.85-4.908s-4.908-7.374-4.908-11.851c0-4.476 1.742-8.684 4.908-11.849 3.165-3.166 7.373-4.909 11.85-4.909 2.768 0 5.408.658 7.849 1.957 3.88 2.065 8.658 1.353 11.769-1.757l121.021-121.021c3.109-3.109 3.822-7.885 1.757-11.767-1.298-2.44-1.956-5.082-1.956-7.85 0-9.241 7.518-16.758 16.758-16.758 9.241 0 16.759 7.518 16.759 16.758 0 5.523 4.478 10 10 10 4.477 0 8.685 1.743 11.85 4.908 3.166 3.166 4.908 7.374 4.908 11.851-.001 4.477-1.743 8.685-4.909 11.85z"/><path d="m121.336 187.471c2.318 24.603 23.617 44.065 48.721 46.392l.633 6.713c.892 9.455 5.411 17.997 12.727 24.052 6.437 5.327 14.356 8.168 22.607 8.168 1.127 0 2.263-.053 3.399-.16l80.954-7.631c19.518-1.84 33.899-19.216 32.061-38.734l-.633-6.714c24.21-6.979 41.488-30.076 39.17-54.675l-5.262-55.815c-3.018-32.005-18.316-60.919-43.081-81.417-24.764-20.498-56.028-30.122-88.033-27.108-32.005 3.017-60.92 18.316-81.418 43.081-20.497 24.764-30.124 56.028-27.107 88.033zm37.253-131.096c17.092-20.648 41.201-33.406 67.888-35.921 26.688-2.514 52.755 5.511 73.403 22.603s33.405 41.201 35.921 67.888l5.262 55.814c1.58 16.764-12.92 33.012-31.03 34.772-5.486.533-9.506 5.404-8.989 10.892l1.482 15.726c.805 8.539-5.487 16.14-14.025 16.945l-8.558.807-1.098-11.649c-.519-5.499-5.385-9.532-10.895-9.018-5.498.519-9.535 5.396-9.018 10.895l1.098 11.649-24.033 2.266-1.098-11.649c-.519-5.499-5.385-9.535-10.895-9.018-5.498.519-9.535 5.396-9.018 10.895l1.098 11.649-8.538.805c-4.136.392-8.176-.854-11.377-3.503-3.2-2.649-5.178-6.386-5.567-10.522l-1.482-15.726c-.488-5.178-4.843-9.062-9.944-9.062-.305 0-.612.014-.922.042-18.122 1.653-35.426-11.595-37.005-28.358l-5.262-55.816c-2.517-26.689 5.511-52.757 22.602-73.406z"/><path d="m227.37 199.28c2.427 2.579 5.71 4.049 9.246 4.138.113.003.226.004.339.004 2.319 0 4.463-.599 6.311-1.418 1.588.407 3.371.603 5.294.399 4.072-.433 7.72-2.607 10.27-6.123 5.614-7.739 1.594-18.094-11.321-29.158-2.065-1.769-4.757-2.625-7.468-2.359-2.707.262-5.19 1.614-6.878 3.746-.324.409-3.232 4.124-5.681 8.622-6.344 11.66-3.562 18.48-.112 22.149z"/><path d="m280.361 152.856c1.002 0 2.015-.047 3.032-.143 8.524-.804 16.226-4.879 21.686-11.475 5.459-6.596 8.023-14.923 7.22-23.448-.804-8.524-4.879-16.226-11.475-21.685-6.595-5.459-14.918-8.022-23.447-7.22-17.597 1.659-30.563 17.325-28.905 34.922 1.563 16.582 15.558 29.051 31.889 29.049zm-1.107-44.057c.386-.037.771-.055 1.153-.055 2.797 0 5.482.964 7.665 2.77 2.48 2.053 4.013 4.949 4.314 8.155v.001c.303 3.206-.662 6.337-2.715 8.817s-4.949 4.013-8.155 4.315c-6.6.623-12.509-4.251-13.133-10.87s4.254-12.51 10.871-13.133z"/><path d="m160.353 132.115c1.563 16.58 15.559 29.047 31.89 29.047 1.002 0 2.015-.047 3.032-.143 8.524-.804 16.226-4.879 21.686-11.475 5.459-6.596 8.023-14.923 7.22-23.447-.804-8.524-4.878-16.226-11.475-21.686-6.595-5.459-14.923-8.025-23.447-7.22-17.597 1.661-30.564 17.326-28.906 34.924zm30.783-15.01c3.203-.305 6.337.662 8.818 2.715 2.48 2.053 4.013 4.949 4.314 8.156.303 3.206-.662 6.337-2.715 8.817s-4.949 4.013-8.155 4.315c-6.608.621-12.51-4.252-13.133-10.87-.624-6.618 4.253-12.509 10.871-13.133z"/><circle cx="147.657" cy="364.346" r="10"/></g></g></svg>