<?xml version="1.0" encoding="utf-8"?>
<!-- Generator: Adobe Illustrator 24.1.2, SVG Export Plug-In . SVG Version: 6.00 Build 0)  -->
<svg version="1.1" id="Layer_1" xmlns="http://www.w3.org/2000/svg" xmlns:xlink="http://www.w3.org/1999/xlink" x="0px" y="0px"
	 viewBox="0 0 512 512" style="enable-background:new 0 0 512 512;" xml:space="preserve">
<style type="text/css">
	.st0{fill:#6BE1FF;}
	.st1{fill:#FF9711;}
	.st2{fill:#ED8600;}
	.st3{fill:#C3C7F4;}
	.st4{fill:#730000;}
	.st5{fill:#860000;}
</style>
<path class="st0" d="M152.7,111.9H351v313.1H152.7L152.7,111.9z"/>
<path class="st1" d="M120.7,79.9v352.1h32V111.9H334v320.1h32V79.9H120.7z"/>
<path class="st0" d="M452.8,425.1H59.2c-3.9,0-7,3.1-7,7s3.1,7,7,7h393.6c3.9,0,7-3.1,7-7S456.7,425.1,452.8,425.1z"/>
<path class="st2" d="M207.3,452.8l184-20.8V79.9l-184-20.8V452.8z"/>
<circle class="st3" cx="244.5" cy="256" r="13.8"/>
<path class="st4" d="M452.8,425.1h-54.5V79.9c0-3.6-2.7-6.6-6.2-7l-76.3-8.6c-3.8-0.4-7.3,2.3-7.7,6.2s2.3,7.3,6.2,7.7l0,0l70.1,7.9
	v339.6l-170,19.2V67l35.5,4c3.8,0.4,7.3-2.3,7.7-6.2c0.4-3.8-2.3-7.3-6.2-7.7l-43.3-4.9c-3.8-0.4-7.3,2.3-7.7,6.2c0,0.3,0,0.5,0,0.8
	v13.8h-79.7c-3.9,0-7,3.1-7,7V301c0,3.9,3.1,7,7,7s7-3.1,7-7V86.9h72.7v365.9c0,3.9,3.1,7,7,7c0.3,0,0.5,0,0.8,0l183.6-20.7h61.1
	c3.9,0,7-3.1,7-7S456.7,425.1,452.8,425.1L452.8,425.1z"/>
<path class="st4" d="M178,425.1h-18.3V118.9H176c3.9,0,7-3.1,7-7s-3.1-7-7-7h-23.3c-3.9,0-7,3.1-7,7v313.1h-18V350c0-3.9-3.1-7-7-7
	s-7,3.1-7,7v75.1H59.2c-3.9,0-7,3.1-7,7s3.1,7,7,7H178c3.9,0,7-3.1,7-7S181.9,425.1,178,425.1z"/>
<path class="st4" d="M120.7,332.3c3.9,0,7-3.1,7-7v-1.5c0-3.9-3.1-7-7-7s-7,3.1-7,7v1.5C113.7,329.2,116.8,332.3,120.7,332.3z"/>
<path class="st5" d="M279.1,74.3l4.6,0.5c0.3,0,0.5,0,0.8,0c3.9,0,7-3.1,7-7c0-3.6-2.7-6.5-6.2-6.9l-4.6-0.5c-3.8-0.5-7.4,2.2-7.9,6
	c-0.5,3.8,2.2,7.4,6,7.9C278.9,74.3,279,74.3,279.1,74.3L279.1,74.3z"/>
<path class="st4" d="M223.7,256c0,11.5,9.3,20.8,20.8,20.8c11.5,0,20.8-9.3,20.8-20.8c0-11.5-9.3-20.8-20.8-20.8l0,0
	C233,235.2,223.7,244.5,223.7,256z M251.3,256c0,3.8-3.1,6.8-6.8,6.8s-6.8-3.1-6.8-6.8c0-3.8,3.1-6.8,6.8-6.8
	C248.3,249.2,251.3,252.2,251.3,256z"/>
</svg>
