<?xml version="1.0" encoding="utf-8"?>
<!-- Generator: Adobe Illustrator 24.1.2, SVG Export Plug-In . SVG Version: 6.00 Build 0)  -->
<svg version="1.1" id="Layer_1" xmlns="http://www.w3.org/2000/svg" xmlns:xlink="http://www.w3.org/1999/xlink" x="0px" y="0px"
	 viewBox="0 0 512 512" style="enable-background:new 0 0 512 512;" xml:space="preserve">
<style type="text/css">
	.st0{fill:#5D86F9;}
	.st1{fill:#4C60DD;}
	.st2{fill:#F1F1FB;}
	.st3{fill:#222F52;}
</style>
<path class="st0" d="M25.2,111.2h461.6v289.6H25.2L25.2,111.2z"/>
<path class="st1" d="M256,374c-8.8-6.4-18.8-12-28.8-16v42.8c0,16,12.8,28.8,28.8,28.8s28.8-12.8,28.8-28.8V358
	C274.8,362,264.8,367.6,256,374L256,374z"/>
<path class="st2" d="M65.2,374c0,0,36-28.8,95.2-28.8S256,374,256,374s36-28.8,95.2-28.8s95.2,28.8,95.2,28.8V111.2
	c0,0-36-28.8-95.2-28.8S256,111.2,256,111.2s-36-28.8-95.2-28.8s-95.2,28.8-95.2,28.8V374H65.2z"/>
<path class="st3" d="M493.6,306.4v18c0,4-3.2,7.2-7.2,7.2s-7.2-3.2-7.2-7.2v-18c0-4,3.2-7.2,7.2-7.2S493.6,302.4,493.6,306.4z
	 M493.6,111.2v156.4c0,4-3.2,7.2-7.2,7.2s-7.2-3.2-7.2-7.2V118.4h-26V374c0,6-6.8,9.2-11.2,5.6c-0.4-0.4-35.2-27.6-90.8-27.6
	c-20.4,0-40.4,3.6-59.2,10.8v30.8h187.6v-32.4c0-4,3.2-7.2,7.2-7.2s7.2,3.2,7.2,7.2v39.2c0,4-3.2,7.2-7.2,7.2H291.2
	c-4,19.6-22.8,32-42.4,28.4c-14.4-2.8-25.6-14-28.4-28.4H25.2c-4,0-7.2-3.2-7.2-7.2V183.2c0-4,3.2-7.2,7.2-7.2s7.2,3.2,7.2,7.2
	v210.4h188v-30.8c-18.8-7.2-39.2-10.8-59.2-10.8c-56,0-90.8,27.2-90.8,27.6c-4.8,3.6-11.2,0.4-11.2-5.6V118.4H32.4V146
	c0,4-3.2,7.2-7.2,7.2S18,150,18,146v-34.8c0-4,3.2-7.2,7.2-7.2h37.6c28.8-19.2,62.8-29.6,97.6-28.8c33.6-0.4,66.8,9.2,95.2,27.2
	C284,84,317.2,74.8,350.8,75.2c34.8-0.4,68.8,9.6,97.6,28.8H486C490.8,104.4,493.6,107.6,493.6,111.2L493.6,111.2z M249.2,360.8
	v-246c-26.4-16.8-57.2-26-88.4-25.6c-31.2-0.4-62,8.4-88.4,25.6v246C125.6,330.8,193.6,329.6,249.2,360.8z M278,368.8
	c-6,2.8-12,6.4-17.6,10.4c-2.4,2-6.4,2-8.8,0c-5.6-4-11.6-7.6-17.6-10.4v32c0,12,10,22,22,22c12,0,22-10,22-22V368.8z M439.6,114.8
	c-54-34-122.8-34-176.8,0v246c54.8-30.8,121.6-30.8,176.8,0L439.6,114.8z M292,128.8c-3.6,1.2-5.6,5.2-4.4,8.8s5.2,5.6,8.8,4.4
	c35.6-12,74-12,109.2,0c3.6,1.2,7.6-0.8,8.8-4.4s-0.8-7.6-4.4-8.8C372,116,330.4,116,292,128.8L292,128.8z M410.4,172.8
	c-38.4-13.2-80-13.2-118.4,0c-3.6,1.2-5.6,5.2-4.4,8.8s5.2,5.6,8.8,4.4c35.6-12,74-12,109.2,0c3.6,1.2,7.6-0.8,8.8-4.4
	C416,178,414.4,174,410.4,172.8L410.4,172.8z M410.4,216.4c-38.4-13.2-80-13.2-118.4,0c-3.6,1.2-5.6,5.2-4.4,8.8s5.2,5.6,8.8,4.4
	c35.6-12,74-12,109.2,0c3.6,1.2,7.6-0.8,8.8-4.4C416,221.6,414,217.6,410.4,216.4L410.4,216.4z M410.4,260.4
	c-38.4-13.2-80-13.2-118.4,0c-3.6,1.2-5.6,5.2-4.4,8.8s5.2,5.6,8.8,4.4c35.6-12,74-12,109.2,0c3.6,1.2,7.6-0.8,8.8-4.4
	C416,265.6,414.4,261.6,410.4,260.4L410.4,260.4z M410.4,304c-38.4-13.2-80-13.2-118.4,0c-3.6,1.2-5.6,5.2-4.4,8.8s5.2,5.6,8.8,4.4
	c35.6-12,74-12,109.2,0c3.6,1.2,7.6-0.8,8.8-4.4C416,309.2,414.4,305.2,410.4,304L410.4,304z M106,142c35.6-12,74-12,109.2,0
	c3.6,1.2,7.6-0.8,8.8-4.4s-0.8-7.6-4.4-8.8c-38.4-13.2-80-13.2-118.4,0c-3.6,1.2-5.6,5.2-4.4,8.8C98.4,141.6,102.4,143.2,106,142z
	 M220,172.8c-38.4-13.2-80-13.2-118.4,0c-3.6,1.2-5.6,5.2-4.4,8.8s5.2,5.6,8.8,4.4c35.6-12,74-12,109.2,0c3.6,1.2,7.6-0.8,8.8-4.4
	C225.6,178,223.6,174,220,172.8z M220,216.4c-38.4-13.2-80-13.2-118.4,0c-3.6,1.2-5.6,5.2-4.4,8.8s5.2,5.6,8.8,4.4
	c35.6-12,74-12,109.2,0c3.6,1.2,7.6-0.8,8.8-4.4S223.6,217.6,220,216.4z M220,260.4c-38.4-13.2-80-13.2-118.4,0
	c-3.6,1.2-5.6,5.2-4.4,8.8s5.2,5.6,8.8,4.4c35.6-12,74-12,109.2,0c3.6,1.2,7.6-0.8,8.8-4.4C225.6,265.6,223.6,261.6,220,260.4z
	 M220,304c-38.4-13.2-80-13.2-118.4,0c-3.6,1.2-5.6,5.2-4.4,8.8s5.2,5.6,8.8,4.4c35.6-12,74-12,109.2,0c3.6,1.2,7.6-0.4,9.2-4
	C225.6,309.6,224,305.6,220,304L220,304z"/>
</svg>
