<?xml version="1.0" encoding="utf-8"?>
<!-- Generator: Adobe Illustrator 24.1.2, SVG Export Plug-In . SVG Version: 6.00 Build 0)  -->
<svg version="1.1" id="Layer_1" xmlns="http://www.w3.org/2000/svg" xmlns:xlink="http://www.w3.org/1999/xlink" x="0px" y="0px"
	 viewBox="0 0 512 512" style="enable-background:new 0 0 512 512;" xml:space="preserve">
<style type="text/css">
	.st0{fill-rule:evenodd;clip-rule:evenodd;fill:#FFC144;}
	.st1{fill:#C26F04;}
	.st2{fill:#C4AC84;}
</style>
<path class="st0" d="M282.8,219.1L256,145.4l-26.8,73.7l-78.3,2.7l61.8,48.3L191,345.4l65-43.8l65,43.8l-21.6-75.3l61.8-48.3
	L282.8,219.1z"/>
<path class="st1" d="M330.6,342.7l-19.7-68.9l56.5-44.1c3.3-2.6,4.7-7,3.4-11c-1.3-4-5-6.8-9.2-6.9l-71.6-2.5L265.4,142
	c-1.4-4-5.2-6.6-9.4-6.6s-8,2.6-9.4,6.6l-24.5,67.3l-71.6,2.5c-4.2,0.1-7.9,2.9-9.2,6.9c-1.3,4,0,8.4,3.4,11l56.5,44.1l-19.7,68.9
	c-1.2,4,0.3,8.4,3.7,10.8c3.4,2.5,8,2.6,11.5,0.2l59.4-40.1l59.4,40.1c1.7,1.1,3.6,1.7,5.6,1.7c2.1,0,4.1-0.6,5.9-1.9
	C330.3,351.1,331.8,346.7,330.6,342.7L330.6,342.7z M261.6,293.3c-1.7-1.1-3.6-1.7-5.6-1.7s-3.9,0.6-5.6,1.7l-42.2,28.5l14-48.9
	c1.1-3.9-0.2-8.1-3.5-10.6l-40.1-31.3l50.9-1.8c4.1-0.1,7.7-2.7,9-6.6l17.4-47.8l17.4,47.8c1.4,3.8,5,6.4,9,6.6l50.9,1.8l-40.1,31.3
	c-3.2,2.5-4.6,6.7-3.5,10.6l14,48.9L261.6,293.3z"/>
<g>
	<path class="st2" d="M256,0c-5.5,0-10,4.5-10,10s4.5,10,10,10s10-4.5,10-10v0C266,4.5,261.5,0,256,0z"/>
	<path class="st2" d="M256,45c-5.5,0-10,4.5-10,10v45c0,5.5,4.5,10,10,10s10-4.5,10-10V55C266,49.5,261.5,45,256,45z"/>
	<path class="st2" d="M76.9,164.2l39,22.5c1.6,0.9,3.3,1.3,5,1.3c3.5,0,6.8-1.8,8.7-5c2.8-4.8,1.1-10.9-3.7-13.7l-39-22.5
		c-4.8-2.8-10.9-1.1-13.7,3.7C70.5,155.3,72.1,161.4,76.9,164.2z"/>
	<path class="st2" d="M38.2,141.8c1.5,0.8,3.1,1.2,4.7,1.2c3.6,0,7-1.9,8.8-5.3c2.6-4.9,0.8-10.9-4.1-13.5l0,0
		c-4.9-2.6-10.9-0.8-13.5,4.1C31.5,133.1,33.4,139.2,38.2,141.8z"/>
	<path class="st2" d="M37.7,370.5L37.7,370.5L37.7,370.5c-4.7,2.9-6.2,9.1-3.3,13.8c1.9,3.1,5.2,4.8,8.5,4.8c1.8,0,3.6-0.5,5.2-1.5
		c4.7-2.9,6.2-9.1,3.3-13.8C48.6,369.1,42.4,367.6,37.7,370.5z"/>
	<path class="st2" d="M129.6,329c-2.8-4.8-8.9-6.4-13.7-3.7l-39,22.5c-4.8,2.8-6.4,8.9-3.7,13.7c1.9,3.2,5.2,5,8.7,5
		c1.7,0,3.4-0.4,5-1.3l39-22.5C130.7,339.9,132.3,333.8,129.6,329z"/>
	<path class="st2" d="M256,492c-5.5,0-10,4.5-10,10v0c0,5.5,4.5,10,10,10c5.5,0,10-4.5,10-10S261.5,492,256,492z"/>
	<path class="st2" d="M256,402c-5.5,0-10,4.5-10,10v45c0,5.5,4.5,10,10,10c5.5,0,10-4.5,10-10v-45C266,406.5,261.5,402,256,402z"/>
	<path class="st2" d="M473.8,370.2L473.8,370.2c-4.9-2.6-10.9-0.8-13.5,4.1c-2.6,4.9-0.8,10.9,4.1,13.5l0,0c1.5,0.8,3.1,1.2,4.7,1.2
		c3.6,0,7-1.9,8.8-5.3C480.5,378.9,478.6,372.8,473.8,370.2z"/>
	<path class="st2" d="M435.1,347.8l-39-22.5c-4.8-2.8-10.9-1.1-13.7,3.7c-2.8,4.8-1.1,10.9,3.7,13.7l39,22.5c1.6,0.9,3.3,1.3,5,1.3
		c3.5,0,6.8-1.8,8.7-5C441.5,356.7,439.9,350.6,435.1,347.8z"/>
	<path class="st2" d="M382.4,183c1.9,3.2,5.2,5,8.7,5c1.7,0,3.4-0.4,5-1.3l39-22.5c4.8-2.8,6.4-8.9,3.7-13.7
		c-2.8-4.8-8.9-6.4-13.7-3.7l-39,22.5C381.3,172.1,379.7,178.2,382.4,183z"/>
	<path class="st2" d="M469,143c1.8,0,3.6-0.5,5.2-1.5l0,0c4.7-2.9,6.2-9.1,3.3-13.8c-2.9-4.7-9.1-6.2-13.8-3.3
		c-4.7,2.9-6.2,9.1-3.3,13.8C462.4,141.3,465.7,143,469,143z"/>
	<polygon class="st2" points="469,143 469,143 469,143 	"/>
	<path class="st2" d="M146.8,86.9c1.9,3.2,5.2,5,8.7,5c1.7,0,3.4-0.4,5-1.3c4.8-2.8,6.4-8.9,3.7-13.7l-22.5-39
		c-2.8-4.8-8.9-6.4-13.7-3.7c-4.8,2.8-6.4,8.9-3.7,13.7L146.8,86.9z"/>
	<path class="st2" d="M173.3,112.1c-4.9,2.6-6.7,8.7-4.1,13.5l0,0c1.8,3.4,5.3,5.3,8.8,5.3c1.6,0,3.2-0.4,4.7-1.2
		c4.9-2.6,6.7-8.7,4.1-13.5C184.2,111.3,178.1,109.5,173.3,112.1z"/>
	<path class="st2" d="M90,256c0,5.5,4.5,10,10,10h0c5.5,0,10-4.5,10-10s-4.5-10-10-10C94.5,246,90,250.5,90,256z"/>
	<path class="st2" d="M55,246H10c-5.5,0-10,4.5-10,10c0,5.5,4.5,10,10,10h45c5.5,0,10-4.5,10-10S60.5,246,55,246z"/>
	<path class="st2" d="M160.5,421.4c-4.8-2.8-10.9-1.1-13.7,3.7l-22.5,39c-2.8,4.8-1.1,10.9,3.7,13.7c1.6,0.9,3.3,1.3,5,1.3
		c3.5,0,6.8-1.8,8.7-5l22.5-39C166.9,430.3,165.3,424.2,160.5,421.4z"/>
	<path class="st2" d="M183.2,382.6L183.2,382.6c-4.7-2.9-10.9-1.4-13.8,3.3c-2.9,4.7-1.4,10.9,3.3,13.8c1.6,1,3.4,1.5,5.2,1.5
		c3.4,0,6.6-1.7,8.5-4.8l0,0C189.4,391.6,187.9,385.5,183.2,382.6z"/>
	<path class="st2" d="M342.8,386.4c-2.6-4.9-8.7-6.7-13.5-4.1c-4.9,2.6-6.7,8.7-4.1,13.5c1.8,3.4,5.3,5.3,8.8,5.3
		c1.6,0,3.2-0.4,4.7-1.2C343.6,397.3,345.4,391.2,342.8,386.4L342.8,386.4z"/>
	<path class="st2" d="M365.2,425.1c-2.8-4.8-8.9-6.4-13.7-3.7c-4.8,2.8-6.4,8.9-3.7,13.7l22.5,39c1.9,3.2,5.2,5,8.7,5
		c1.7,0,3.4-0.4,5-1.3c4.8-2.8,6.4-8.9,3.7-13.7L365.2,425.1z"/>
	<path class="st2" d="M412,246c-5.5,0-10,4.5-10,10c0,5.5,4.5,10,10,10s10-4.5,10-10C422,250.5,417.5,246,412,246L412,246z"/>
	<path class="st2" d="M502,246h-45c-5.5,0-10,4.5-10,10c0,5.5,4.5,10,10,10h45c5.5,0,10-4.5,10-10S507.5,246,502,246z"/>
	<path class="st2" d="M328.8,129.4c1.6,1,3.4,1.5,5.2,1.5c3.4,0,6.6-1.7,8.5-4.8c2.9-4.7,1.4-10.9-3.3-13.8
		c-4.7-2.9-10.9-1.4-13.8,3.3l0,0C322.6,120.4,324.1,126.5,328.8,129.4z"/>
	<path class="st2" d="M351.5,90.6c1.6,0.9,3.3,1.3,5,1.3c3.5,0,6.8-1.8,8.7-5l22.5-39c2.8-4.8,1.1-10.9-3.7-13.7
		c-4.8-2.8-10.9-1.1-13.7,3.7l-22.5,39C345.1,81.7,346.7,87.8,351.5,90.6z"/>
</g>
</svg>
