<?xml version="1.0" encoding="utf-8"?>
<!-- Generator: Adobe Illustrator 24.1.2, SVG Export Plug-In . SVG Version: 6.00 Build 0)  -->
<svg version="1.1" id="Livello_1" xmlns="http://www.w3.org/2000/svg" xmlns:xlink="http://www.w3.org/1999/xlink" x="0px" y="0px"
	 viewBox="0 0 24 24" style="enable-background:new 0 0 24 24;" xml:space="preserve">
<g>
	<path d="M7.7,19.1c-0.1,0-0.3,0-0.4,0H2.5H1.8V5.4H0v15.5h11.3l-0.2-0.2C10.2,19.8,9,19.2,7.7,19.1z"/>
	<path d="M7.2,3.1H3.2v14.5h4.1c1.5,0,2.9,0.5,4.1,1.3V4.9l-0.2-0.2C10.1,3.7,8.7,3.1,7.2,3.1z M8.9,14.4H5.6V13h3.2V14.4z
		 M8.9,11.2H5.6V9.8h3.2V11.2z M8.9,8.1H5.6V6.7h3.2V8.1z"/>
	<path d="M20.8,17.7V3.1h-4.1c-1.5,0-2.8,0.6-3.9,1.6l-0.2,0.2V19c1.2-0.8,2.6-1.3,4.1-1.3H20.8z M15.1,6.7h3.2v1.4h-3.2V6.7z
		 M15.1,9.8h3.2v1.4h-3.2V9.8z M15.1,13h3.2v1.4h-3.2V13z"/>
	<path d="M22.2,5.4v13.7h-5.5c-1.5,0-2.8,0.6-3.9,1.6l-0.2,0.2H24V5.4H22.2z"/>
</g>
</svg>
