<?xml version="1.0" encoding="utf-8"?>
<!-- Generator: Adobe Illustrator 24.1.2, SVG Export Plug-In . SVG Version: 6.00 Build 0)  -->
<svg version="1.1" id="Livello_1" xmlns="http://www.w3.org/2000/svg" xmlns:xlink="http://www.w3.org/1999/xlink" x="0px" y="0px"
	 viewBox="0 0 24 24" style="enable-background:new 0 0 24 24;" xml:space="preserve">
<g>
	<path d="M13.6,9.8l0.1-0.8l-0.3,0.3c-0.5,0.5-1.1,0.8-1.8,0.8c-0.5,0-1-0.2-1.4-0.4L9.9,9.4l0.1,0.6c0.1,1.1-0.5,2.2-1.6,2.7
		l-0.8,0.4l0.9,0.4c1,0.5,1.6,1.5,1.6,2.7v0L9.9,17l0.2-0.2c0.5-0.4,1.1-0.7,1.7-0.7c0.5,0,1,0.2,1.4,0.4l0.4,0.3l0-0.6
		c-0.1-1.3,0.7-2.5,1.9-2.8l0.5-0.1l-1.1-0.6C13.9,12.2,13.4,11,13.6,9.8z"/>
	<path d="M23.9,13.8l-6.8-3.6c-0.4-0.2-0.6-0.7-0.5-1.1l1.7-8.8c0-0.1,0-0.2-0.1-0.2c-0.1,0-0.1,0-0.2,0l-5.7,6.1
		c-0.3,0.4-0.9,0.4-1.3,0.1l-4.4-3c0,0-0.1,0-0.1,0c-0.1,0-0.1,0.1-0.1,0.2l0.5,5.6c0,0.4-0.2,0.9-0.6,1.1l-6.2,2.6
		C0,12.8,0,12.9,0,13s0,0.1,0.1,0.2l6.2,2.6c0.4,0.2,0.7,0.6,0.6,1l-0.5,7c0,0.1,0,0.2,0.1,0.2c0.1,0,0.1,0,0.2,0l4.4-4.2
		c0.3-0.3,0.9-0.4,1.2-0.1l4.5,3c0,0,0.1,0,0.1,0c0.1,0,0.1-0.1,0.1-0.2l-0.5-5.6c-0.1-0.5,0.3-1,0.8-1.1l6.6-1.7
		c0.1,0,0.1-0.1,0.1-0.2C24,13.9,24,13.8,23.9,13.8z M17.3,13.9l-1.6,0.4c-0.8,0.2-1.4,1.1-1.3,1.9l0.1,1.5c0,0.2-0.1,0.3-0.2,0.4
		s-0.3,0.1-0.5,0l-1.2-0.8c-0.6-0.4-1.5-0.4-2,0.2l-1,0.9c-0.1,0.1-0.3,0.2-0.5,0.1S9,18.3,9,18.1l0.1-1.9c0.1-0.8-0.3-1.5-1-1.8
		l-1.7-0.8c-0.2-0.1-0.3-0.2-0.3-0.4c0-0.2,0.1-0.3,0.3-0.4L8.1,12c0.7-0.3,1.1-1.1,1-1.8L9,8.6C9,8.4,9,8.3,9.2,8.2
		c0.1-0.1,0.3-0.1,0.5,0L10.8,9c0.7,0.4,1.5,0.3,2.1-0.2l1.3-1.4c0.1-0.1,0.3-0.2,0.5-0.1c0.2,0.1,0.3,0.3,0.2,0.5L14.4,10
		c-0.2,0.8,0.2,1.6,0.9,2l2,1.1c0.2,0.1,0.2,0.3,0.2,0.4C17.6,13.7,17.4,13.8,17.3,13.9z"/>
</g>
</svg>
