<?xml version="1.0" encoding="utf-8"?>
<!-- Generator: Adobe Illustrator 24.1.2, SVG Export Plug-In . SVG Version: 6.00 Build 0)  -->
<svg version="1.1" id="Livello_1" xmlns="http://www.w3.org/2000/svg" xmlns:xlink="http://www.w3.org/1999/xlink" x="0px" y="0px"
	 viewBox="0 0 24 25" style="enable-background:new 0 0 24 25;" xml:space="preserve">
<g>
	<path d="M16.2,21.2L14.7,23l-2.1-0.9c-0.2-0.1-0.4-0.1-0.5,0L9.9,23l-1.5-1.7C8.3,21.1,8.1,21,7.9,21l-2.3-0.1L5,18.7
		c-0.1-0.2-0.2-0.3-0.3-0.4l-2-1.1L3,14.9c0-0.2,0-0.4-0.1-0.5l-1.3-1.9l1.3-1.9C3,10.5,3,10.3,3,10.1L2.6,7.8l2-1.1
		C4.8,6.6,4.9,6.5,5,6.3l0.6-2.2L7.9,4c0.2,0,0.4-0.1,0.5-0.2L9.9,2L12,2.9c0.2,0.1,0.4,0.1,0.5,0L14.7,2l1.5,1.7
		c0.3,0.3,0.7,0.3,1,0.1c0.3-0.3,0.3-0.7,0.1-1l-1.9-2.1c-0.2-0.2-0.5-0.3-0.8-0.2l-2.3,1l-2.3-1c-0.3-0.1-0.6,0-0.8,0.2L7.5,2.6
		L5,2.7C4.7,2.8,4.5,3,4.4,3.2L3.7,5.6L1.5,6.9C1.2,7,1.1,7.3,1.2,7.6l0.4,2.5l-1.4,2c-0.2,0.2-0.2,0.6,0,0.8l1.4,2l-0.4,2.5
		c0,0.3,0.1,0.6,0.4,0.7l2.2,1.2l0.7,2.4C4.5,22,4.7,22.2,5,22.3l2.5,0.1l1.7,1.9c0.1,0.2,0.3,0.2,0.5,0.2c0.1,0,0.2,0,0.3-0.1
		l2.3-1l2.3,1c0.3,0.1,0.6,0,0.8-0.2l1.9-2.1c0.3-0.3,0.2-0.7-0.1-1C16.9,20.9,16.5,21,16.2,21.2z"/>
	<path d="M23.3,8.4h-1.8C20.8,6.5,19,5.2,17,5.2h-3.6c-1.4,0-2.6,1.2-2.6,2.6v4.7c0,0.5,0.4,0.9,0.9,0.9c1.2,0,2.2-1,2.2-2.2v-2
		c0-0.2,0.1-0.4,0.2-0.5c0.3-0.3,0.7-0.3,1,0l0.5,0.5c0.7,0.7,1.7,1.2,2.8,1.2c0.4,0,0.7,0.3,0.7,0.7c0,0.4-0.3,0.7-0.7,0.7
		c-1.1,0-2.2-0.3-3-1v0.4c0,0.6-0.1,1.1-0.4,1.6c0.6,0.5,1,1.3,1,2.2c0,1.1-0.6,2-1.5,2.6c0,0.2,0.1,0.4,0.1,0.6
		c0,0.6-0.2,1.1-0.5,1.6h4.2c1.3,0,2.4-0.6,3.1-1.7l0.1-0.1h1.8c0.4,0,0.7-0.3,0.7-0.7V9.1C24,8.7,23.7,8.4,23.3,8.4z"/>
	<path d="M14.5,15c0-0.4-0.2-0.8-0.4-1.1c-0.6,0.6-1.5,0.9-2.4,0.9c-1,0-1.8-0.6-2.1-1.4c-0.1-0.3-0.2-0.6-0.2-0.9V7.1H7.7
		c-0.9,0-1.6,0.7-1.6,1.6c0,0.9,0.7,1.6,1.6,1.6h0.1c-0.9,0-1.6,0.7-1.6,1.6c0,0.9,0.7,1.6,1.6,1.6H7.7c-0.9,0-1.6,0.7-1.6,1.6
		c0,0.9,0.7,1.6,1.6,1.6h1.4c-0.9,0-1.6,0.7-1.6,1.6c0,0.9,0.7,1.6,1.6,1.6h2.5c0.9,0,1.6-0.7,1.6-1.6c0-0.9-0.7-1.6-1.6-1.6h1.4
		C13.8,16.6,14.5,15.9,14.5,15z"/>
</g>
</svg>
