<?xml version="1.0" encoding="utf-8"?>
<!-- Generator: Adobe Illustrator 24.1.2, SVG Export Plug-In . SVG Version: 6.00 Build 0)  -->
<svg version="1.1" id="Livello_1" xmlns="http://www.w3.org/2000/svg" xmlns:xlink="http://www.w3.org/1999/xlink" x="0px" y="0px"
	 viewBox="0 0 24 25" style="enable-background:new 0 0 24 25;" xml:space="preserve">
<g>
	<path d="M23.8,12.1l-1.4-2l0.4-2.5c0.1-0.3,0-0.6-0.3-0.7l-2.2-1.3l-0.7-2.4C19.5,3,19.3,2.8,19,2.7l-2.5-0.1l-1.7-1.9
		c-0.2-0.2-0.5-0.3-0.8-0.2l-2.3,1l-2.3-1c-0.3-0.1-0.6,0-0.8,0.2L6.8,2.8c-0.2,0.3-0.2,0.7,0.1,1C7.2,4,7.5,4,7.8,3.7L9.3,2
		l2.2,0.9C11.7,3,11.8,3,12,2.9L14.2,2l1.5,1.8C15.8,3.9,16,4,16.2,4l2.3,0.1L19,6.3c0.1,0.2,0.2,0.3,0.4,0.4l2,1.1L21,10.1
		c0,0.2,0,0.4,0.1,0.5l1.3,1.9l-1.3,1.9C21,14.5,21,14.7,21,14.9l0.3,2.3l-2,1.1c-0.1,0.1-0.2,0.2-0.3,0.4l-0.6,2.2L16.2,21
		c-0.2,0-0.4,0.1-0.5,0.3L14.2,23L12,22.1c-0.1-0.1-0.3-0.1-0.5,0L9.3,23l-1.5-1.8c-0.3-0.2-0.7-0.3-1-0.1c-0.3,0.3-0.4,0.7-0.1,1
		l1.9,2.1c0.2,0.2,0.5,0.3,0.8,0.2l2.3-1l2.3,1c0.1,0.1,0.2,0.1,0.3,0.1c0.2,0,0.4,0,0.5-0.2l1.7-1.9l2.5-0.1
		c0.3-0.1,0.5-0.3,0.5-0.6l0.7-2.4l2.2-1.2c0.3-0.1,0.4-0.4,0.4-0.7l-0.4-2.5l1.4-2C24,12.7,24,12.3,23.8,12.1z"/>
	<path d="M9.5,18.2c0-0.2,0.1-0.4,0.1-0.6C8.7,17,8,16.1,8,15c0-0.9,0.4-1.7,1-2.2c-0.3-0.5-0.4-1-0.4-1.6v-0.4c-0.8,0.7-1.9,1-3,1
		c-0.4,0-0.7-0.3-0.7-0.7c0-0.4,0.3-0.7,0.7-0.7c1.1,0,2.1-0.5,2.8-1.2L9,8.7c0.3-0.3,0.7-0.3,1,0C10,8.8,10.2,9,10.2,9.2v2
		c0,1.2,1,2.2,2.2,2.2c0.5,0,0.9-0.4,0.9-0.9V7.8c0-1.4-1.2-2.6-2.6-2.6H7c-2,0-3.8,1.3-4.5,3.2H0.8C0.3,8.4,0,8.7,0,9.1v8.2
		C0,17.7,0.3,18,0.8,18h1.8l0.1,0.1c0.7,1.1,1.8,1.7,3.1,1.7H10C9.7,19.3,9.5,18.8,9.5,18.2z"/>
	<path d="M18,8.7c0-0.9-0.7-1.6-1.6-1.6h-1.7v5.4c0,0.3-0.1,0.6-0.2,0.9c-0.3,0.8-1.1,1.4-2.1,1.4c-0.9,0-1.8-0.3-2.4-0.9
		c-0.2,0.3-0.4,0.7-0.4,1.1c0,0.9,0.7,1.6,1.5,1.7h1.4c-0.9,0-1.6,0.7-1.6,1.6c0,0.9,0.7,1.6,1.6,1.6H15c0.9,0,1.6-0.7,1.6-1.6
		c0-0.9-0.7-1.6-1.6-1.6h1.4c0.9,0,1.6-0.7,1.6-1.6c0-0.9-0.7-1.6-1.6-1.6h-0.1c0.9,0,1.6-0.7,1.6-1.6c0-0.9-0.7-1.6-1.6-1.6h0.1
		C17.3,10.3,18,9.6,18,8.7z"/>
</g>
</svg>
