<?xml version="1.0" encoding="utf-8"?>
<!-- Generator: Adobe Illustrator 24.1.2, SVG Export Plug-In . SVG Version: 6.00 Build 0)  -->
<svg version="1.1" id="Livello_1" xmlns="http://www.w3.org/2000/svg" xmlns:xlink="http://www.w3.org/1999/xlink" x="0px" y="0px"
	 viewBox="0 0 24 24" style="enable-background:new 0 0 24 24;" xml:space="preserve">
<style type="text/css">
	.st0{fill-rule:evenodd;clip-rule:evenodd;}
</style>
<path class="st0" d="M22.7,1.3c-0.8-0.8-2-1.3-3.2-1.3h-15C3.3,0,2.2,0.5,1.3,1.3C0.5,2.2,0,3.3,0,4.5v15c0,1.2,0.5,2.3,1.3,3.2
	c0.8,0.8,2,1.3,3.2,1.3h15c1.2,0,2.3-0.5,3.2-1.3c0.8-0.8,1.3-2,1.3-3.2v-15C24,3.3,23.5,2.2,22.7,1.3z M13.6,13.6
	c-0.4,0.4-1,0.7-1.6,0.7s-1.2-0.2-1.6-0.7c-0.4-0.4-0.7-1-0.7-1.6s0.2-1.2,0.7-1.6c0.4-0.4,1-0.7,1.6-0.7s1.2,0.2,1.6,0.7
	c0.4,0.4,0.7,1,0.7,1.6S14,13.2,13.6,13.6z"/>
</svg>
