<?xml version="1.0" encoding="utf-8"?>
<!-- Generator: Adobe Illustrator 24.1.2, SVG Export Plug-In . SVG Version: 6.00 Build 0)  -->
<svg version="1.1" id="Livello_1" xmlns="http://www.w3.org/2000/svg" xmlns:xlink="http://www.w3.org/1999/xlink" x="0px" y="0px"
	 viewBox="0 0 24 24" style="enable-background:new 0 0 24 24;" xml:space="preserve">
<g>
	<path d="M24,7.2V3.1c0-0.4-0.3-0.7-0.7-0.7c-0.4,0-0.7,0.3-0.7,0.7v1.2h-8.7H6.5C5.7,4.3,4.9,5,4.9,5.8c0,0.8-0.5,1.5-1.3,1.7
		c-0.9,0-1.6-0.8-1.6-1.6c0-0.4-0.3-0.7-0.7-0.7S0.7,5.5,0.7,5.9c0,1.4,1,2.6,2.3,3v1h0.5c2.1,0,3.8,1.7,3.8,3.8h0.5v2.8
		c0,0.5,0.4,0.9,0.9,0.9h4.2c0.5,0,0.9-0.4,0.9-0.9v-5h7c0.7,0,1.3-0.6,1.3-1.3V8.6h-8.3V7.2H24z M8.9,6.9h1.4
		c0.4,0,0.7,0.3,0.7,0.7s-0.3,0.7-0.7,0.7H8.9C8.5,8.3,8.2,8,8.2,7.6S8.5,6.9,8.9,6.9z M8.2,10.3c0-0.4,0.3-0.7,0.7-0.7h1.4
		c0.4,0,0.7,0.3,0.7,0.7c0,0.4-0.3,0.7-0.7,0.7H8.9C8.5,11,8.2,10.7,8.2,10.3z M12.4,16H9.2v-1.6l1.2,1c0.1,0.1,0.3,0.2,0.4,0.2
		c0.2,0,0.4-0.1,0.5-0.3c0.2-0.3,0.2-0.7-0.1-1l-0.8-0.6h2V16z"/>
	<path d="M3.5,11.3H3.1c-2.2,1.2-2.5,5.3-2.5,5.3l-0.3,4.3c0,0.4,0.3,0.7,0.7,0.7h4c0.5,0,0.8-0.4,0.7-0.9l-0.5-3.6
		c0.1-1.8,0.1-1.8,0.7-3.5C5.9,12.3,4.8,11.3,3.5,11.3z"/>
</g>
</svg>
