<?xml version="1.0" encoding="utf-8"?>
<!-- Generator: Adobe Illustrator 24.1.2, SVG Export Plug-In . SVG Version: 6.00 Build 0)  -->
<svg version="1.1" id="Livello_1" xmlns="http://www.w3.org/2000/svg" xmlns:xlink="http://www.w3.org/1999/xlink" x="0px" y="0px"
	 viewBox="0 0 24 24" style="enable-background:new 0 0 24 24;" xml:space="preserve">
<style type="text/css">
	.st0{fill:none;}
</style>
<path d="M3.8,9.3"/>
<rect x="8.3" y="6.1" class="st0" width="3.5" height="1.4"/>
<rect x="8.3" y="8.9" class="st0" width="3.5" height="1.4"/>
<path d="M3.7,9.4c-0.1,0-0.2,0.1-0.3,0.1C3.5,9.5,3.6,9.4,3.7,9.4z"/>
<path d="M6.2,18L6,16.5c0-0.8,0.1-1.6,0.4-2.5l0.2-0.8c-1.4-0.8-2.5-2.1-2.9-3.8c-0.1,0-0.2,0.1-0.3,0.1c-1.7,0.9-2.4,3.8-2.5,4.1
	l-0.3,2.9L0.5,18l-0.2,2.3c0,0.2,0.2,0.5,0.5,0.5h6L7,20.4C6.6,19.6,6.3,18.8,6.2,18z"/>
<path d="M23.7,7.5V5.4h-1.4V3.3h-1.4v2.1h-6.3V4H9.1C7.4,4,6,5,5.3,6.4l-0.9-1H2v1.4h1.8L5,8.1v0.1c0,2.3,1.9,4.2,4.2,4.2h2v1.3
	c0,0.8-0.7,1.5-1.5,1.5h-2c-0.1,0.5-0.2,0.9-0.2,1.4h2.1c1.6,0,2.9-1.3,2.9-2.9v-1.3h2.1v-1.9h4.9V8.4h-4.9V7.5H23.7z M11.8,10.3
	H8.3V8.8h3.5V10.3z M11.8,7.5H8.3V6.1h3.5V7.5z"/>
</svg>
