<?xml version="1.0" encoding="utf-8"?>
<!-- Generator: Adobe Illustrator 24.1.2, SVG Export Plug-In . SVG Version: 6.00 Build 0)  -->
<svg version="1.1" id="Livello_1" xmlns="http://www.w3.org/2000/svg" xmlns:xlink="http://www.w3.org/1999/xlink" x="0px" y="0px"
	 viewBox="0 0 512 512" style="enable-background:new 0 0 512 512;" xml:space="preserve">
<path d="M445.9,366c0,23.2-19,42-42.4,42c-4.4,0-7.9,3.6-7.9,7.9c0,4.4,3.5,7.9,7.9,7.9c23.4,0,42.4,18.9,42.4,42.2
	c0,4.4,3.5,7.9,7.9,7.9c4.4,0,7.9-3.6,7.9-7.9c0-23.3,19-42.2,42.4-42.2c4.4,0,7.9-3.5,7.9-7.9c0-4.4-3.5-7.9-7.9-7.9
	c-23.4,0-42.4-18.9-42.4-42c0-4.4-3.5-7.9-7.9-7.9C449.4,358.1,445.9,361.7,445.9,366z"/>
<path d="M403.5,440.9c-13.7,0-24.9-11.2-24.9-24.9s11.2-24.9,24.9-24.9c14,0,25.4-11.2,25.4-25c0-13.1,10.2-23.9,23.1-24.9
	c0-0.6,0-1.2,0-1.8c0-92.5,0-164.6,0-256.9c0-12.4-10.1-22.5-22.5-22.5S407,70.1,407,82.5c0,40.6,0,109.9,0,113.5
	c0,8.3-6.7,15-15,15s-15-6.7-15-15c0-3.7,0-140.9,0-143.5c0-12.4-10.1-22.5-22.5-22.5S332,40.1,332,52.5c0,3.3,0,138.6,0,143.5
	c0,8.3-6.7,15-15,15s-15-6.7-15-15c0-5.3,0-167.1,0-173.5C302,10.1,291.9,0,279.5,0S257,10.1,257,22.5c0,11,0,166.6,0,173.5
	c0,8.3-6.7,15-15,15s-15-6.7-15-15c0-3.7,0-140.9,0-143.5c0-12.4-10.1-22.5-22.5-22.5S182,40.1,182,52.5c0,4.4,0,181.3,0,184.9
	l18.6,18.6H227c57.9,0,105,47.1,105,105c0,8.3-6.7,15-15,15c-8.3,0-15-6.7-15-15c0-41.4-33.6-75-75-75h-32.6c-4,0-7.8-1.6-10.6-4.4
	l-48.9-48.9c-18.6-18.6-49.5-21-68.2-2.5c-0.1,0.1-0.2,0.2-0.4,0.4c-5.4,5.4-5.7,14.1-0.9,20.1l136,160.7
	c6.8,8.1,10.6,18.3,10.6,28.9V497c0,8.3,6.7,15,15,15h180c8.3,0,15-6.7,15-15v-37.6c0-3.3,0.2-6.7,0.5-10
	C417.8,444.2,411,440.9,403.5,440.9z"/>
<path d="M137.6,116.2c7,0,12.7-5.7,12.7-12.7c0-7-5.7-12.7-12.7-12.7c-27.5,0-49.8-22.2-49.8-49.4c0-7-5.7-12.7-12.7-12.7
	c-7,0-12.7,5.7-12.7,12.7C62.5,68.7,40.1,91,12.7,91C5.7,91,0,96.6,0,103.6c0,7,5.7,12.7,12.7,12.7c27.5,0,49.8,22.2,49.8,49.4
	c0,7,5.7,12.7,12.7,12.7c7,0,12.7-5.7,12.7-12.7C87.8,138.4,110.2,116.2,137.6,116.2z"/>
<path d="M103.1,465.8c0-17.7,14.5-32.2,32.3-32.2c4.5,0,8.2-3.7,8.2-8.2c0-4.5-3.7-8.2-8.2-8.2c-17.8,0-32.3-14.4-32.3-32.1
	c0-4.5-3.7-8.2-8.2-8.2s-8.2,3.7-8.2,8.2c0,17.7-14.5,32.2-32.3,32.2c-4.5,0-8.2,3.7-8.2,8.2s3.7,8.2,8.2,8.2
	c17.8,0,32.3,14.4,32.3,32.1c0,4.5,3.7,8.2,8.2,8.2S103.1,470.4,103.1,465.8z"/>
</svg>
