<svg width="24" height="24" viewBox="0 0 24 24" fill="none" xmlns="http://www.w3.org/2000/svg">
<path d="M3.99975 8.66563H4.00313L5.86125 7.85898C5.90131 7.83514 5.93495 7.80117 5.95907 7.76021C5.98319 7.71924 5.99701 7.67261 5.99925 7.62461C5.99711 7.57658 5.98333 7.52991 5.9592 7.48892C5.93507 7.44794 5.90138 7.41399 5.86125 7.39023L4.00238 6.58281H3.99975L3.225 4.64375C3.20428 4.60047 3.17239 4.56407 3.13291 4.53862C3.09343 4.51318 3.04793 4.4997 3.0015 4.4997C2.95507 4.4997 2.90957 4.51318 2.87009 4.53862C2.83061 4.56407 2.79872 4.60047 2.778 4.64375L2.00175 6.58242H1.99988L0.13875 7.39062C0.0984848 7.41428 0.0646371 7.44819 0.0403718 7.48918C0.0161065 7.53017 0.00221633 7.5769 0 7.625C0.00224214 7.673 0.0160616 7.71964 0.0401814 7.7606C0.0643013 7.80156 0.0979436 7.83554 0.138 7.85938L1.99763 8.66406H2.00025L2.775 10.6039C2.79562 10.6473 2.82747 10.6838 2.86696 10.7094C2.90646 10.7349 2.95202 10.7484 2.9985 10.7484C3.04498 10.7484 3.09054 10.7349 3.13004 10.7094C3.16953 10.6838 3.20138 10.6473 3.222 10.6039L3.99788 8.66563H3.99975ZM17.6768 20.2582L17.6393 20.2418L17.6018 20.2223C17.3612 20.0967 17.159 19.9039 17.0176 19.6654C16.8763 19.4269 16.8015 19.1521 16.8015 18.8719C16.8015 18.5916 16.8763 18.3169 17.0176 18.0784C17.159 17.8399 17.3612 17.6471 17.6018 17.5215L17.6393 17.5023L17.6768 17.4855L19.0826 16.875L19.6688 15.4109L19.6841 15.3719L19.7018 15.3348C19.8461 15.0324 20.0985 14.8023 20.3899 14.6574C20.3899 14.6055 20.3993 14.5523 20.4 14.5012V7.625C20.4 7.29348 20.2736 6.97554 20.0485 6.74112C19.8235 6.5067 19.5183 6.375 19.2 6.375C18.8817 6.375 18.5765 6.5067 18.3515 6.74112C18.1264 6.97554 18 7.29348 18 7.625V10.4375C18 10.5204 17.9684 10.5999 17.9121 10.6585C17.8559 10.7171 17.7796 10.75 17.7 10.75H17.1C17.0204 10.75 16.9441 10.7171 16.8879 10.6585C16.8316 10.5999 16.8 10.5204 16.8 10.4375V4.5C16.8 4.16848 16.6736 3.85054 16.4485 3.61612C16.2235 3.3817 15.9183 3.25 15.6 3.25C15.2817 3.25 14.9765 3.3817 14.7515 3.61612C14.5264 3.85054 14.4 4.16848 14.4 4.5V10.4375C14.4 10.5204 14.3684 10.5999 14.3121 10.6585C14.2559 10.7171 14.1796 10.75 14.1 10.75H13.5C13.4204 10.75 13.3441 10.7171 13.2879 10.6585C13.2316 10.5999 13.2 10.5204 13.2 10.4375V3.25C13.2 2.91848 13.0736 2.60054 12.8485 2.36612C12.6235 2.1317 12.3183 2 12 2C11.6817 2 11.3765 2.1317 11.1515 2.36612C10.9264 2.60054 10.8 2.91848 10.8 3.25V10.4375C10.8 10.5204 10.7684 10.5999 10.7121 10.6585C10.6559 10.7171 10.5796 10.75 10.5 10.75H9.9C9.82044 10.75 9.74413 10.7171 9.68787 10.6585C9.63161 10.5999 9.6 10.5204 9.6 10.4375V4.5C9.6 4.16848 9.47357 3.85054 9.24853 3.61612C9.02348 3.3817 8.71826 3.25 8.4 3.25C8.08174 3.25 7.77652 3.3817 7.55147 3.61612C7.32643 3.85054 7.2 4.16848 7.2 4.5V13.9141L6.31538 12.6449C6.08121 12.3097 5.7288 12.0852 5.33567 12.0206C4.94255 11.9561 4.54092 12.0569 4.21913 12.3008C3.89733 12.5447 3.68175 12.9118 3.61979 13.3213C3.55783 13.7308 3.65458 14.1492 3.88875 14.4844L8.59875 21.227C8.76569 21.466 8.98444 21.6606 9.23721 21.7949C9.48997 21.9292 9.76961 21.9995 10.0534 22H17.4638C18.1853 22 18.8006 21.5418 19.0853 20.8754L19.0826 20.8687L17.6768 20.2582ZM13.1171 15.2625L12 15.7473L11.5343 16.9105C11.5218 16.9364 11.5026 16.9582 11.479 16.9734C11.4553 16.9887 11.428 16.9967 11.4002 16.9967C11.3724 16.9967 11.3451 16.9887 11.3214 16.9734C11.2978 16.9582 11.2786 16.9364 11.2661 16.9105L10.8 15.7473L9.68287 15.2625C9.65791 15.2495 9.63692 15.2296 9.62224 15.2049C9.60756 15.1802 9.59978 15.1517 9.59978 15.1227C9.59978 15.0936 9.60756 15.0651 9.62224 15.0404C9.63692 15.0157 9.65791 14.9958 9.68287 14.9828L10.8 14.4977L11.2658 13.3344C11.2782 13.3085 11.2974 13.2867 11.321 13.2715C11.3447 13.2563 11.372 13.2482 11.3998 13.2482C11.4276 13.2482 11.4549 13.2563 11.4786 13.2715C11.5023 13.2867 11.5214 13.3085 11.5339 13.3344L12 14.4977L13.1171 14.9828C13.1421 14.9958 13.1631 15.0157 13.1778 15.0404C13.1924 15.0651 13.2002 15.0936 13.2002 15.1227C13.2002 15.1517 13.1924 15.1802 13.1778 15.2049C13.1631 15.2296 13.1421 15.2495 13.1171 15.2625ZM24 18.8715C23.9979 18.8235 23.9841 18.7768 23.96 18.7358C23.9359 18.6948 23.9021 18.6608 23.862 18.6371L22.0031 17.8297H22.0005L21.225 15.8918C21.2043 15.8485 21.1724 15.8121 21.1329 15.7867C21.0934 15.7612 21.0479 15.7477 21.0015 15.7477C20.9551 15.7477 20.9096 15.7612 20.8701 15.7867C20.8306 15.8121 20.7987 15.8485 20.778 15.8918L20.0018 17.8305H19.9999L18.1388 18.6406C18.0986 18.6644 18.0649 18.6983 18.0408 18.7393C18.0166 18.7803 18.0029 18.827 18.0007 18.875C18.0032 18.9227 18.0171 18.969 18.0412 19.0096C18.0654 19.0502 18.0989 19.0838 18.1388 19.1074L19.9976 19.9148H20.0003L20.775 21.852C20.7956 21.8953 20.8275 21.9319 20.867 21.9574C20.9065 21.983 20.952 21.9965 20.9985 21.9965C21.045 21.9965 21.0905 21.983 21.13 21.9574C21.1695 21.9319 21.2014 21.8953 21.222 21.852L21.9979 19.9137H22.0013L23.8594 19.1066C23.8992 19.0831 23.9328 19.0494 23.9569 19.0088C23.981 18.9682 23.9949 18.9219 23.9974 18.8742L24 18.8715Z" fill="black"/>
</svg>
